<?xml version="1.0" standalone="no"?>
<!DOCTYPE svg PUBLIC "-//W3C//DTD SVG 20010904//EN"
 "http://www.w3.org/TR/2001/REC-SVG-20010904/DTD/svg10.dtd">
<svg version="1.0" xmlns="http://www.w3.org/2000/svg"
 width="1024.000000pt" height="1024.000000pt" viewBox="0 0 1024.000000 1024.000000"
 preserveAspectRatio="xMidYMid meet">

<g transform="translate(0.000000,1024.000000) scale(0.100000,-0.100000)"
fill="#000000" stroke="none">
<path d="M2545 9689 c-269 -39 -509 -116 -766 -245 -100 -50 -166 -93 -208
-135 l-30 -30 24 -36 c14 -20 25 -40 25 -44 0 -16 15 -9 95 42 193 123 526
254 755 298 144 27 331 45 391 37 27 -4 72 -4 100 0 45 6 51 10 56 36 3 16 15
35 26 43 25 18 20 24 -30 36 -48 11 -357 10 -438 -2z"/>
<path d="M3165 9646 c-101 -47 -145 -115 -145 -225 0 -55 5 -75 29 -117 32
-56 59 -78 109 -88 32 -8 32 -8 32 -67 0 -52 -2 -59 -20 -59 -28 0 -95 -64
-119 -114 -14 -28 -21 -62 -21 -102 l0 -59 -53 -29 c-28 -16 -60 -36 -69 -44
-15 -13 -20 -12 -47 11 -63 53 -191 56 -265 7 -29 -19 -30 -19 -77 6 -27 13
-55 24 -64 24 -12 0 -15 14 -15 73 0 107 -13 141 -68 182 -26 20 -59 38 -74
41 -16 4 -28 10 -28 15 0 5 -29 9 -64 9 -60 0 -68 -3 -115 -40 -61 -48 -76
-70 -92 -133 -8 -33 -8 -59 -1 -87 10 -39 9 -41 -21 -56 -18 -9 -47 -27 -64
-41 l-33 -24 -47 28 c-42 24 -57 28 -126 27 l-78 -2 -56 67 c-31 36 -60 68
-64 69 -14 6 -10 37 11 87 65 151 -42 309 -210 309 -125 0 -232 -96 -247 -224
-7 -60 15 -125 55 -165 67 -67 195 -105 252 -75 26 14 41 3 114 -82 l58 -69
-23 -25 c-34 -36 -40 -163 -11 -220 21 -41 58 -79 105 -109 22 -14 27 -24 25
-49 -2 -24 -11 -35 -39 -48 -48 -22 -96 -79 -109 -129 -9 -33 -8 -51 4 -88
l15 -46 -43 -40 c-23 -22 -47 -48 -52 -58 -9 -16 -13 -16 -69 4 -80 27 -157
28 -218 1 l-48 -21 -10 27 c-6 15 -15 77 -21 139 -22 226 19 444 127 663 30
62 52 116 49 121 -3 5 -12 9 -21 9 -8 0 -28 8 -44 17 -27 16 -29 16 -48 -1
-38 -34 -120 -212 -155 -333 -50 -173 -63 -293 -48 -451 13 -142 33 -222 66
-267 18 -24 24 -48 28 -117 7 -102 31 -153 100 -212 122 -105 306 -52 379 109
21 46 25 141 7 181 -11 24 -10 28 17 48 17 11 46 38 65 59 l35 37 40 -20 c56
-30 130 -24 181 15 l37 29 66 -37 66 -36 -3 -64 c-3 -50 1 -73 16 -104 25 -48
95 -113 122 -113 18 0 20 -7 20 -59 0 -58 -1 -60 -33 -70 -60 -20 -111 -89
-127 -171 -15 -78 8 -152 64 -205 82 -80 157 -94 251 -49 91 42 145 126 145
224 0 88 -55 180 -117 196 -23 6 -33 31 -32 84 0 31 6 39 47 65 68 44 105 101
110 174 l4 59 59 41 c32 22 67 41 77 41 11 0 41 -9 67 -21 58 -26 103 -21 150
16 41 31 41 31 79 1 17 -13 51 -33 76 -46 25 -12 46 -24 48 -25 2 -1 4 -25 6
-52 6 -87 70 -186 129 -201 31 -8 32 -10 35 -69 l3 -60 -32 -7 c-37 -7 -105
-73 -125 -122 -23 -55 -18 -142 12 -203 49 -99 177 -155 277 -122 49 16 126
87 148 136 47 102 7 248 -80 292 -55 28 -61 37 -61 90 0 37 4 45 29 57 82 43
132 115 141 205 l5 54 64 39 c35 22 71 40 81 41 9 0 45 -12 80 -27 69 -31 126
-32 159 -2 26 24 35 21 118 -34 42 -27 81 -51 87 -53 6 -2 3 -18 -8 -42 -24
-50 -18 -152 12 -211 54 -105 195 -162 296 -120 46 19 112 81 143 133 23 40
25 52 21 124 -4 68 -9 86 -34 122 -58 82 -202 129 -288 93 -39 -16 -40 -16
-79 11 -22 16 -61 42 -86 59 l-46 30 0 75 c-1 103 -23 146 -91 178 -45 21 -53
29 -57 58 -8 47 -2 58 47 87 98 57 131 165 91 291 -5 17 7 31 59 74 36 29 76
65 88 80 18 21 28 25 48 20 14 -4 57 -7 95 -8 114 -1 200 51 235 144 18 47 14
148 -8 197 -28 62 -99 124 -167 143 -59 17 -106 15 -178 -11 l-38 -14 -47 48
c-55 56 -127 101 -272 171 -110 53 -274 101 -290 85 -11 -11 3 -76 23 -108 11
-16 45 -34 104 -55 48 -18 135 -58 193 -89 166 -89 213 -111 224 -105 6 4 6
-1 2 -13 -5 -10 -13 -47 -19 -81 -10 -60 -2 -115 28 -186 6 -14 -11 -36 -80
-103 -82 -81 -89 -85 -118 -77 -66 17 -150 9 -205 -20 l-52 -27 -74 37 -74 38
-4 65 c-7 98 -49 167 -123 201 -23 11 -31 22 -33 48 -5 47 6 81 25 81 26 0
102 68 124 111 42 84 22 207 -46 275 -73 73 -179 93 -270 50z m152 -126 c43
-26 56 -54 50 -104 -7 -49 -53 -96 -93 -96 -37 0 -91 36 -110 72 -20 39 -11
74 29 116 37 38 76 42 124 12z m1032 -335 c16 -8 41 -29 56 -46 22 -27 25 -39
20 -67 -8 -45 -23 -68 -52 -81 -60 -27 -143 4 -171 63 -43 88 58 177 147 131z
m-2973 -29 c40 -40 45 -83 14 -134 -38 -61 -114 -66 -170 -11 -46 47 -39 108
18 156 42 36 96 31 138 -11z m1955 -195 c54 -54 34 -148 -37 -171 -90 -30
-170 74 -117 150 27 39 45 49 86 50 29 0 45 -7 68 -29z m-1048 -12 c43 -35 49
-72 17 -112 -23 -29 -80 -51 -109 -42 -30 9 -71 63 -71 92 0 15 13 38 34 59
44 44 79 44 129 3z m-163 -261 c19 -13 49 -23 84 -26 45 -4 62 0 103 23 l49
28 56 -37 c32 -20 62 -36 68 -36 5 0 10 -21 10 -47 1 -87 48 -175 116 -215 39
-23 46 -40 38 -85 -5 -26 -15 -38 -44 -53 -56 -29 -83 -81 -86 -164 -1 -67 -2
-69 -33 -82 -18 -8 -43 -22 -57 -33 l-25 -20 -50 32 c-43 26 -59 31 -114 30
-44 0 -77 -7 -109 -23 l-46 -22 -58 36 c-72 44 -87 60 -103 115 -14 48 -76
121 -102 121 -10 0 -17 13 -22 40 -9 51 1 79 30 86 13 3 44 27 69 54 50 54 71
111 62 174 -6 41 -6 41 57 83 34 23 66 42 70 42 4 1 21 -9 37 -21z m1035 -3
c56 -34 142 -35 207 0 26 14 52 25 58 25 5 0 42 -21 80 -46 66 -44 70 -49 70
-84 0 -79 47 -161 118 -206 38 -25 42 -30 42 -69 0 -39 -3 -43 -40 -60 -66
-30 -110 -105 -110 -186 0 -38 -2 -40 -71 -74 l-70 -36 -65 32 c-57 28 -71 31
-123 26 -38 -3 -78 -15 -110 -33 l-51 -27 -75 34 c-70 32 -74 36 -75 66 -1
106 -45 186 -108 199 -31 6 -42 25 -42 74 0 20 12 34 52 60 29 19 66 55 83 78
25 37 30 53 30 103 0 54 2 60 25 68 14 5 48 25 75 45 28 19 52 35 55 35 3 1
23 -10 45 -24z m723 -50 c17 -19 32 -44 32 -55 0 -32 -25 -74 -52 -87 -45 -22
-60 -23 -88 -6 -28 16 -70 79 -70 105 0 15 56 72 80 81 28 11 65 -4 98 -38z
m-2118 20 c72 -37 89 -103 41 -157 -53 -59 -140 -38 -185 44 -19 34 -19 37 -2
62 20 31 73 66 99 66 10 0 31 -7 47 -15z m1031 -16 c38 -41 40 -99 4 -134 -36
-37 -102 -35 -144 4 -43 40 -42 83 1 128 44 46 97 46 139 2z m-20 -502 c29
-20 34 -29 33 -60 -3 -79 -72 -103 -131 -45 -41 40 -44 78 -7 107 34 27 63 26
105 -2z m1079 8 c53 -27 64 -74 29 -119 -38 -48 -137 -30 -159 30 -12 31 5 71
39 89 34 18 56 18 91 0z m-2086 -16 c37 -29 36 -80 -1 -109 -55 -43 -153 -1
-153 65 0 33 44 65 90 65 23 0 48 -8 64 -21z m489 -248 c115 -44 94 -201 -26
-201 -118 0 -148 140 -42 194 35 19 36 19 68 7z m1042 -5 c19 -8 44 -30 55
-48 37 -60 21 -111 -44 -142 -50 -23 -72 -20 -113 18 -32 29 -38 41 -38 74 0
43 30 86 70 102 28 12 31 12 70 -4z m-1990 -102 c53 -35 79 -109 54 -156 -25
-47 -128 -63 -174 -26 -65 51 -64 128 3 173 42 29 82 32 117 9z m3071 -25 c59
-36 66 -119 12 -164 -41 -35 -105 -35 -147 1 -27 22 -31 32 -31 76 0 43 4 54
31 79 38 35 86 38 135 8z m-2106 -422 c26 -20 50 -60 50 -84 0 -28 -54 -91
-85 -99 -25 -6 -58 7 -92 39 -16 14 -23 32 -23 58 0 80 90 132 150 86z m1061
-16 c55 -55 31 -145 -48 -177 -29 -13 -37 -12 -62 1 -38 19 -71 62 -71 92 0
96 115 150 181 84z"/>
<path d="M5294 9456 c-47 -21 -113 -84 -136 -130 -29 -57 -35 -154 -13 -211
39 -103 109 -150 225 -150 88 0 136 21 192 83 47 52 62 99 56 181 -7 101 -51
171 -133 213 -51 26 -149 34 -191 14z m158 -166 c38 -38 40 -43 35 -87 -4 -37
-12 -54 -36 -75 -70 -63 -181 -19 -181 72 0 76 45 130 108 130 27 0 43 -9 74
-40z"/>
<path d="M2180 9422 c-25 -4 -84 -43 -108 -72 -22 -27 -39 -64 -45 -100 -3
-19 -3 -30 -1 -23 3 7 15 1 31 -15 l26 -26 30 38 c40 49 94 77 127 64 37 -14
68 -47 75 -79 6 -25 30 -49 49 -49 12 0 36 60 36 89 0 104 -112 192 -220 173z"/>
<path d="M5841 9216 c-36 -38 -33 -92 7 -127 67 -60 152 -21 152 71 0 73 -108
111 -159 56z"/>
<path d="M4915 9132 c-83 -11 -70 -82 15 -82 40 0 70 16 70 38 0 37 -29 52
-85 44z"/>
<path d="M7996 9114 c-10 -37 10 -51 63 -46 38 4 41 6 41 33 0 22 -5 29 -19
29 -10 0 -32 3 -48 6 -27 5 -31 3 -37 -22z"/>
<path d="M6404 9116 c-14 -37 0 -51 51 -51 45 0 50 2 53 24 2 13 -2 28 -10 32
-22 14 -88 11 -94 -5z"/>
<path d="M6670 9094 l0 -35 53 3 c51 3 52 4 55 36 l3 32 -55 0 -56 0 0 -36z"/>
<path d="M6948 9123 c-19 -5 -22 -20 -12 -47 8 -22 77 -21 95 0 27 33 -26 63
-83 47z"/>
<path d="M7204 9116 c-15 -12 -17 -18 -8 -33 16 -26 107 -26 112 0 8 42 -61
64 -104 33z"/>
<path d="M7465 9114 c-30 -30 -15 -49 40 -49 45 0 50 2 53 24 2 13 -2 28 -10
32 -22 14 -65 10 -83 -7z"/>
<path d="M7734 9104 c-8 -31 7 -44 51 -44 41 0 57 13 53 41 -3 21 -9 24 -50
27 -44 3 -48 1 -54 -24z"/>
<path d="M8240 9107 c0 -33 19 -47 62 -47 37 0 38 1 38 35 l0 35 -50 0 c-46 0
-50 -2 -50 -23z"/>
<path d="M8484 9117 c-14 -37 0 -52 46 -52 36 0 45 4 48 19 5 24 -6 33 -50 41
-29 6 -39 4 -44 -8z"/>
<path d="M4511 8891 c-6 -11 -20 -23 -31 -26 -30 -10 -25 -45 20 -135 89 -175
130 -339 130 -517 0 -124 -10 -196 -47 -342 l-26 -104 27 -24 c34 -29 72 -39
91 -23 20 16 60 149 82 270 12 66 17 146 17 260 0 148 -3 175 -28 265 -34 124
-89 241 -152 324 -55 73 -68 81 -83 52z"/>
<path d="M8758 8897 c6 -6 13 -33 17 -59 8 -56 36 -88 60 -68 37 31 4 108 -56
129 -25 8 -29 8 -21 -2z"/>
<path d="M6776 8780 c-325 -41 -674 -198 -911 -409 -201 -179 -350 -388 -436
-611 -42 -109 -87 -299 -98 -419 -7 -78 -14 -109 -29 -125 -43 -48 -243 -399
-268 -470 -19 -52 -10 -89 29 -122 31 -26 33 -26 162 -24 71 2 147 2 168 2
l37 -2 0 -267 c0 -244 4 -297 23 -358 7 -20 2 -20 -276 -21 -251 -1 -301 -4
-458 -27 -240 -36 -382 -87 -529 -187 -76 -52 -126 -108 -278 -306 -214 -279
-288 -399 -331 -535 -43 -136 -94 -509 -106 -779 -16 -371 -50 -723 -68 -717
-6 2 -23 41 -38 88 -29 93 -79 226 -171 454 -33 83 -102 272 -154 420 -88 253
-119 329 -150 365 -10 12 -7 29 22 97 73 178 99 349 80 545 -5 62 -10 196 -10
298 -1 175 1 192 32 319 17 74 32 159 32 188 0 47 -4 58 -37 94 -46 51 -91 74
-195 99 -105 25 -155 25 -254 -1 -130 -34 -460 -173 -537 -226 -48 -34 -62
-60 -77 -153 -10 -61 -20 -86 -55 -135 -23 -33 -59 -94 -80 -135 -23 -46 -62
-100 -100 -140 -78 -81 -95 -115 -96 -188 -1 -31 -10 -85 -21 -120 -24 -71
-20 -129 11 -190 18 -35 233 -246 463 -456 94 -84 98 -90 98 -129 0 -63 21
-141 105 -393 42 -126 114 -362 161 -524 47 -162 114 -389 149 -505 57 -189
126 -427 258 -900 25 -88 73 -263 107 -390 89 -333 87 -328 110 -353 11 -12
35 -29 53 -38 18 -9 67 -47 110 -85 47 -40 98 -75 125 -84 65 -23 206 -30 299
-16 82 13 213 66 213 86 0 6 -10 21 -23 32 -46 43 -64 46 -186 37 -157 -11
-224 -8 -303 16 -123 37 -142 68 -213 347 -23 92 -79 294 -124 448 -45 154
-106 368 -136 475 -29 107 -70 249 -91 315 -20 66 -69 237 -109 380 -40 143
-84 303 -99 355 -15 52 -67 219 -116 370 -96 294 -109 342 -110 405 l0 40 55
2 c34 2 112 22 203 52 109 37 150 46 160 38 22 -18 37 -54 102 -242 83 -239
144 -400 315 -830 79 -198 173 -454 210 -570 85 -270 117 -349 172 -431 31
-47 43 -73 39 -89 -9 -36 -81 -137 -164 -230 -123 -138 -162 -211 -130 -243
53 -53 209 65 356 268 42 58 97 130 122 161 102 126 366 424 500 564 125 131
228 254 295 350 81 116 203 258 395 459 109 114 382 360 482 434 214 158 710
448 911 533 56 24 104 51 112 63 40 65 54 514 22 756 -9 74 -20 152 -22 173
-4 30 -2 39 12 44 182 63 249 104 379 230 89 86 155 167 187 230 19 36 23 108
7 118 -6 4 -35 9 -64 12 -61 6 -53 14 -137 -130 -53 -92 -177 -204 -280 -254
-160 -79 -293 -98 -619 -91 -162 4 -224 9 -250 20 -46 19 -116 98 -124 139 -3
17 -6 165 -6 329 0 187 -4 309 -11 328 -14 40 -43 49 -184 57 -60 3 -124 8
-142 11 l-32 5 26 57 c15 31 64 115 110 185 46 71 90 141 98 156 8 16 26 98
40 182 57 340 126 512 281 705 221 275 632 509 972 554 113 16 360 8 484 -15
194 -35 408 -123 575 -237 437 -297 637 -780 534 -1285 -10 -49 -42 -148 -70
-219 -88 -223 -172 -340 -376 -524 -115 -104 -139 -130 -167 -188 l-33 -67 0
-305 c1 -296 1 -308 27 -410 15 -58 38 -137 53 -175 28 -74 153 -320 227 -445
80 -134 246 -452 307 -585 132 -291 238 -611 310 -937 81 -366 103 -668 100
-1315 -3 -444 -4 -430 51 -453 39 -16 76 -6 97 27 17 25 18 64 18 483 0 785
-50 1179 -220 1720 -110 352 -219 587 -550 1190 -190 347 -244 517 -260 825
-9 163 7 320 39 382 26 52 87 124 207 248 163 168 289 364 359 560 123 351 99
710 -72 1050 -82 163 -218 340 -343 447 -213 182 -510 326 -770 373 -105 19
-398 28 -499 15z m-4068 -2542 c20 -20 14 -52 -19 -91 -38 -46 -59 -57 -196
-103 -59 -20 -134 -49 -167 -65 -46 -23 -62 -27 -73 -18 -13 12 -114 17 -143
9 -22 -7 -24 33 -3 52 22 19 137 69 338 147 225 88 240 92 263 69z m184 -61
c0 -25 -12 -90 -25 -144 -51 -197 -59 -333 -43 -684 8 -160 7 -199 -9 -285
-41 -231 -119 -355 -260 -413 -96 -41 -180 -54 -220 -35 -44 21 -216 168 -325
278 -77 78 -92 98 -80 106 28 18 60 10 107 -26 63 -48 160 -94 199 -94 111 0
204 86 204 189 0 36 3 40 47 62 55 28 83 74 83 136 0 40 2 43 38 52 53 15 117
65 137 108 38 79 0 216 -75 275 l-31 24 20 115 c17 93 25 117 43 129 12 8 47
40 78 70 59 58 80 105 80 176 0 35 1 37 16 22 10 -9 16 -33 16 -61z m-368
-324 c-3 -27 -8 -50 -10 -52 -5 -6 -74 40 -74 50 0 8 67 48 83 49 5 0 5 -21 1
-47z m-264 -68 c36 -21 97 -59 135 -84 39 -26 90 -59 115 -73 58 -34 88 -66
96 -105 5 -26 1 -36 -21 -57 -16 -14 -33 -26 -39 -26 -6 0 -59 38 -119 84 -59
46 -150 110 -203 141 l-96 58 -51 -13 c-29 -7 -70 -21 -91 -31 -22 -10 -41
-17 -44 -15 -11 12 23 79 51 100 49 37 127 66 167 62 19 -2 64 -20 100 -41z
m3157 9 c18 -25 16 -58 -5 -84 -18 -22 -28 -23 -211 -31 -195 -8 -241 -12
-341 -30 -103 -19 -153 -40 -205 -89 -27 -26 -75 -63 -107 -84 -55 -36 -93
-78 -81 -90 3 -3 50 -3 103 0 83 6 102 4 142 -14 51 -22 201 -160 225 -205 19
-38 10 -87 -23 -127 -34 -40 -51 -38 -70 10 -20 50 -79 101 -161 142 -69 34
-87 32 -105 -9 -7 -15 -39 -57 -73 -93 -33 -36 -85 -107 -115 -159 -73 -125
-125 -181 -222 -238 -44 -27 -86 -57 -94 -68 -10 -16 -11 -102 -4 -450 10
-484 11 -1176 1 -1217 -4 -17 -81 -103 -206 -230 l-200 -203 -6 70 c-4 39 -27
133 -52 210 -56 176 -62 227 -43 385 19 158 53 548 61 705 3 66 12 188 20 270
8 83 22 230 30 328 22 259 53 385 128 517 101 179 381 545 468 611 59 45 177
99 272 124 108 29 269 50 497 65 302 19 353 17 377 -16z m278 -41 c40 -13 106
-16 332 -17 l282 0 6 -26 c26 -99 38 -231 42 -477 3 -150 2 -288 -1 -307 -6
-31 -12 -36 -57 -51 -68 -23 -312 -149 -479 -248 -592 -351 -937 -664 -1380
-1252 -82 -110 -178 -220 -185 -213 -2 2 -7 312 -10 689 l-6 685 49 45 c27 24
73 64 102 88 63 53 124 146 171 259 19 46 40 86 47 89 7 3 31 -3 53 -13 l40
-18 -2 -55 c-3 -51 -1 -57 22 -68 55 -29 180 -7 244 41 61 47 88 107 93 207 4
77 1 93 -20 141 -34 72 -130 183 -179 205 -74 32 -55 39 160 58 91 8 207 15
256 15 106 0 144 9 207 49 61 39 104 99 113 157 6 41 9 45 28 39 12 -4 45 -14
72 -22z m-3481 -253 c162 -101 226 -154 226 -187 0 -31 -26 -63 -51 -63 -10 0
-61 29 -114 65 -106 72 -205 125 -232 125 -10 0 -63 -12 -118 -25 -117 -29
-153 -31 -162 -10 -12 34 51 73 211 131 50 18 100 33 110 34 11 0 69 -31 130
-70z m-52 -287 c56 -43 111 -90 122 -105 l20 -28 -24 -25 c-43 -46 -79 -33
-205 69 -38 31 -63 45 -74 41 -140 -54 -208 -57 -249 -10 -45 53 -31 66 103
102 183 48 185 48 307 -44z"/>
<path d="M8974 8636 c-13 -55 24 -86 60 -50 31 31 13 74 -31 74 -16 0 -24 -7
-29 -24z"/>
<path d="M8981 8466 c-7 -8 -11 -30 -9 -48 3 -29 6 -33 33 -33 27 0 30 4 33
35 3 24 -2 38 -14 47 -23 17 -29 16 -43 -1z"/>
<path d="M8973 8274 c-9 -24 14 -64 37 -64 24 0 38 43 20 65 -16 20 -49 19
-57 -1z"/>
<path d="M7686 8126 c-43 -16 -100 -67 -122 -108 -28 -54 -11 -151 41 -230 14
-21 25 -40 25 -43 0 -7 -199 -139 -247 -164 -23 -11 -52 -21 -64 -21 -34 0
-197 92 -203 115 -3 11 -6 82 -6 159 l0 139 35 38 c57 63 43 108 -21 69 -32
-18 -46 -20 -109 -14 -41 4 -81 4 -90 0 -14 -5 -14 -9 -1 -33 8 -16 26 -38 40
-50 21 -19 26 -32 26 -70 0 -27 3 -98 6 -159 l7 -110 -93 -41 -92 -41 -102 83
c-55 46 -114 97 -130 114 l-30 31 22 62 c28 80 28 126 0 168 -36 52 -71 73
-121 73 -92 -2 -167 -74 -167 -162 0 -88 137 -248 293 -341 56 -34 114 -71
130 -84 l27 -22 -10 -94 c-5 -52 -10 -124 -10 -160 l-1 -65 -47 -32 c-76 -51
-237 -123 -275 -123 -49 0 -63 -20 -48 -69 9 -33 19 -42 60 -60 28 -11 61 -21
74 -21 25 0 42 23 31 41 -3 5 15 21 41 37 25 15 80 48 122 75 43 26 88 47 100
47 13 0 45 -17 72 -37 26 -21 69 -50 94 -65 25 -14 51 -39 59 -55 12 -24 19
-28 48 -25 22 2 42 12 55 27 25 31 219 145 245 145 15 0 230 -100 248 -115 2
-2 -4 -17 -12 -34 -19 -35 -22 -164 -5 -208 15 -40 77 -102 124 -124 83 -38
184 -15 243 57 46 55 62 95 62 153 0 63 -25 116 -76 161 -52 45 -93 60 -168
60 -57 0 -73 4 -118 33 -29 18 -92 55 -139 82 l-86 49 -7 80 c-3 45 -6 113 -6
152 l0 70 101 75 c56 41 118 89 139 107 32 27 45 32 90 32 64 0 90 15 153 88
75 88 86 176 33 267 -50 84 -152 123 -240 91z m-1215 -115 c57 -57 28 -146
-46 -144 -20 1 -42 6 -48 12 -27 27 -2 145 31 154 30 8 33 7 63 -22z m1340
-10 c43 -43 49 -73 24 -121 -26 -50 -79 -65 -122 -35 -29 20 -45 78 -32 113
13 34 58 82 77 82 8 0 32 -17 53 -39z m-640 -497 c125 -65 129 -71 129 -210
l0 -114 -32 -30 c-18 -16 -74 -52 -125 -80 l-91 -51 -46 23 c-26 13 -74 46
-107 73 l-60 50 5 132 c2 72 9 139 14 149 12 21 169 102 200 103 13 1 64 -20
113 -45z m682 -652 c16 -16 30 -44 34 -65 5 -32 1 -41 -30 -72 -48 -48 -86
-48 -134 0 -32 32 -35 39 -30 78 8 58 56 102 101 93 17 -4 44 -19 59 -34z"/>
<path d="M8982 8114 c-5 -9 -7 -27 -4 -40 4 -20 10 -24 31 -22 21 2 25 7 23
28 -7 45 -33 64 -50 34z"/>
<path d="M8974 7946 c-3 -8 -4 -31 -2 -52 3 -36 6 -39 35 -42 25 -2 33 1 38
18 8 26 -2 72 -18 82 -19 12 -47 9 -53 -6z"/>
<path d="M8970 7691 l0 -51 41 0 40 0 -3 48 c-3 47 -3 47 -40 50 l-38 3 0 -50z"/>
<path d="M8972 7473 c3 -48 3 -48 38 -48 35 0 35 0 35 45 0 45 0 45 -38 48
l-38 3 3 -48z"/>
<path d="M1322 7328 c-81 -81 233 -341 591 -489 279 -115 569 -169 906 -169
219 0 390 21 596 72 252 62 549 207 720 351 73 61 105 97 105 118 0 21 -42 59
-66 59 -11 0 -60 -30 -110 -67 -127 -96 -156 -114 -290 -181 -301 -151 -676
-232 -1014 -219 -240 10 -545 63 -710 124 -184 68 -366 169 -515 283 -103 79
-179 130 -193 130 -4 0 -13 -5 -20 -12z"/>
<path d="M8982 7311 c-9 -5 -12 -24 -10 -52 3 -41 5 -44 34 -47 29 -3 32 0 38
31 7 35 0 67 -14 67 -5 0 -14 2 -22 5 -7 3 -19 1 -26 -4z"/>
<path d="M8977 7103 c-4 -3 -7 -25 -7 -49 0 -39 2 -42 33 -47 17 -2 35 -3 40
0 8 5 9 65 1 87 -6 16 -54 22 -67 9z"/>
<path d="M8993 6912 c-18 -3 -23 -10 -23 -32 0 -50 61 -65 73 -18 11 39 -8 57
-50 50z"/>
<path d="M8996 6796 c-52 -20 -103 -70 -132 -131 -26 -56 -29 -98 -13 -177 25
-117 153 -188 284 -159 45 10 62 21 98 61 57 64 77 107 77 168 0 96 -49 186
-120 222 -53 27 -144 34 -194 16z m144 -111 c17 -9 39 -34 51 -57 38 -74 10
-151 -71 -193 -70 -36 -159 24 -167 112 -9 106 97 184 187 138z"/>
<path d="M1174 6666 c-12 -48 -2 -71 33 -74 28 -3 33 1 39 23 10 39 -10 75
-41 75 -18 0 -26 -7 -31 -24z"/>
<path d="M1174 6464 c-9 -36 7 -59 42 -59 27 0 29 3 29 40 0 38 -2 40 -32 43
-28 3 -33 0 -39 -24z"/>
<path d="M9360 6473 c-20 -8 -30 -24 -30 -50 0 -13 -12 -52 -26 -89 -31 -76
-26 -101 28 -134 62 -38 151 -18 184 42 23 40 17 128 -10 169 -36 52 -100 79
-146 62z m47 -169 c-3 -3 -12 -4 -19 -1 -8 3 -5 6 6 6 11 1 17 -2 13 -5z"/>
<path d="M1174 6277 c-3 -8 -4 -32 -2 -53 3 -37 5 -39 41 -42 l38 -3 -3 53
c-3 52 -4 53 -36 56 -21 2 -34 -2 -38 -11z"/>
<path d="M8981 6271 c-26 -47 -9 -81 40 -81 18 0 20 6 17 48 -3 40 -6 47 -25
50 -14 2 -26 -4 -32 -17z"/>
<path d="M8977 6083 c-13 -12 -7 -81 6 -86 7 -3 25 -3 40 0 22 4 27 11 27 33
0 45 -10 60 -39 60 -15 0 -31 -3 -34 -7z"/>
<path d="M1177 6073 c-4 -3 -7 -26 -7 -50 l0 -43 40 0 c39 0 40 1 40 34 0 51
-9 66 -39 66 -15 0 -31 -3 -34 -7z"/>
<path d="M8974 5877 c-3 -8 -4 -32 -2 -53 3 -37 5 -39 38 -39 l35 0 0 50 c0
49 -1 50 -33 53 -21 2 -34 -2 -38 -11z"/>
<path d="M1170 5815 l0 -45 40 0 40 0 0 45 0 45 -40 0 -40 0 0 -45z"/>
<path d="M8976 5654 c-3 -9 -6 -31 -6 -50 0 -33 1 -34 40 -34 l40 0 0 50 0 50
-34 0 c-22 0 -36 -6 -40 -16z"/>
<path d="M1177 5654 c-4 -4 -7 -29 -7 -56 l0 -49 38 3 37 3 0 50 c0 48 -1 50
-30 53 -17 2 -34 0 -38 -4z"/>
<path d="M8974 5436 c-3 -13 -4 -38 -2 -57 3 -32 6 -34 38 -34 35 0 35 0 38
49 3 52 -6 66 -45 66 -15 0 -25 -8 -29 -24z"/>
<path d="M1177 5433 c-4 -3 -7 -25 -7 -49 0 -46 10 -55 53 -47 25 5 27 9 27
54 0 49 0 49 -33 49 -19 0 -37 -3 -40 -7z"/>
<path d="M8977 5224 c-4 -4 -7 -29 -7 -56 l0 -48 41 0 40 0 -3 53 c-3 50 -4
52 -33 55 -17 2 -34 0 -38 -4z"/>
<path d="M1174 5196 c-12 -48 -2 -71 34 -74 l32 -3 0 50 c0 50 -1 51 -30 51
-23 0 -31 -5 -36 -24z"/>
<path d="M8976 5005 c-11 -29 -6 -82 8 -95 8 -6 25 -10 38 -8 21 3 23 8 23 58
0 54 0 55 -31 58 -22 2 -33 -2 -38 -13z"/>
<path d="M1170 4955 c0 -44 0 -45 34 -45 28 0 35 4 40 26 11 44 -1 64 -40 64
-34 0 -34 0 -34 -45z"/>
<path d="M1174 4786 c-3 -8 -4 -29 -2 -48 3 -31 6 -33 38 -33 29 0 36 4 38 24
7 47 -6 71 -39 71 -16 0 -32 -6 -35 -14z"/>
<path d="M8974 4786 c-3 -8 -4 -27 -2 -42 2 -21 10 -30 32 -35 40 -11 46 -5
46 47 0 44 0 44 -35 44 -22 0 -38 -6 -41 -14z"/>
<path d="M8977 4604 c-4 -4 -7 -29 -7 -56 l0 -48 41 0 40 0 -3 53 c-3 50 -4
52 -33 55 -17 2 -34 0 -38 -4z"/>
<path d="M1174 4586 c-3 -8 -4 -29 -2 -48 3 -28 7 -33 32 -36 33 -4 46 10 46
50 0 40 -63 68 -76 34z"/>
<path d="M1176 4384 c-18 -48 6 -97 44 -87 45 12 33 103 -14 103 -13 0 -27 -7
-30 -16z"/>
<path d="M8977 4383 c-4 -3 -7 -26 -7 -50 l0 -43 40 0 40 0 0 50 c0 50 0 50
-33 50 -19 0 -37 -3 -40 -7z"/>
<path d="M1183 4193 c-14 -5 -17 -50 -7 -77 4 -9 18 -16 34 -16 29 0 40 15 40
56 0 17 -8 27 -26 34 -14 6 -26 10 -27 9 -1 0 -8 -3 -14 -6z"/>
<path d="M8970 4148 c0 -46 12 -60 46 -56 27 3 29 6 29 43 0 39 -1 40 -37 43
-37 3 -38 2 -38 -30z"/>
<path d="M1174 3987 c-3 -8 -4 -30 -2 -49 3 -30 6 -33 41 -36 l38 -3 -3 48
c-3 46 -4 48 -36 51 -21 2 -34 -2 -38 -11z"/>
<path d="M8977 3984 c-4 -4 -7 -27 -7 -51 l0 -43 41 0 40 0 -3 48 c-3 44 -5
47 -33 50 -17 2 -34 0 -38 -4z"/>
<path d="M1177 3793 c-9 -8 -9 -56 -1 -77 4 -9 18 -16 34 -16 16 0 30 7 34 16
10 25 7 59 -6 72 -13 13 -50 16 -61 5z"/>
<path d="M5888 3766 c-56 -20 -85 -42 -115 -88 -24 -35 -27 -51 -28 -117 0
-58 5 -85 22 -116 62 -117 179 -163 291 -115 28 12 57 28 63 36 6 8 17 14 23
14 26 0 268 -153 275 -174 25 -64 55 -178 61 -231 l7 -59 -47 -46 c-26 -25
-52 -62 -59 -82 -17 -51 1 -112 45 -156 l35 -35 94 6 c154 10 195 39 195 134
0 47 -4 58 -36 93 -20 22 -52 49 -71 61 l-35 22 4 82 c3 75 6 87 35 128 18 25
37 56 42 69 5 13 57 59 116 102 l106 78 71 -36 c79 -40 98 -43 195 -20 53 12
76 23 106 52 57 55 70 86 71 172 1 119 -39 178 -150 220 -69 25 -109 25 -179
-1 -112 -42 -168 -121 -164 -230 l3 -61 -90 -55 c-49 -30 -99 -64 -110 -75
-14 -13 -24 -16 -29 -9 -8 14 -90 14 -129 0 -29 -10 -37 -7 -112 44 -45 30
-104 67 -131 83 l-51 28 -4 73 c-6 88 -36 138 -113 191 -41 28 -55 32 -109 32
-33 -1 -78 -7 -98 -14z m146 -123 c31 -23 56 -65 56 -93 0 -60 -56 -120 -112
-120 -55 0 -128 77 -128 135 0 84 112 131 184 78z m1156 -20 c20 -19 32 -41
36 -69 5 -34 2 -45 -21 -72 -55 -65 -122 -80 -173 -37 -62 52 -67 132 -11 179
25 21 41 26 85 26 45 0 59 -5 84 -27z m-600 -454 c0 -11 -4 -19 -10 -19 -13 0
-28 32 -23 48 7 18 33 -5 33 -29z m25 -384 c30 -29 31 -50 5 -92 -14 -23 -29
-34 -56 -39 -33 -6 -40 -3 -61 20 -29 34 -30 76 0 103 43 40 79 42 112 8z"/>
<path d="M8970 3731 l0 -51 35 0 c28 0 36 4 41 24 3 13 4 35 2 47 -2 20 -10
25 -40 27 l-38 3 0 -50z"/>
<path d="M1177 3603 c-13 -12 -7 -80 7 -93 8 -6 25 -10 38 -8 19 2 23 10 26
47 2 28 -1 47 -10 52 -16 10 -52 12 -61 2z"/>
<path d="M8977 3563 c-4 -3 -7 -24 -7 -45 0 -39 0 -39 37 -36 41 3 50 19 39
64 -5 18 -13 24 -35 24 -15 0 -31 -3 -34 -7z"/>
<path d="M1177 3393 c-4 -3 -7 -23 -7 -44 0 -31 4 -38 26 -43 44 -11 67 28 48
78 -6 16 -54 22 -67 9z"/>
<path d="M8977 3364 c-4 -4 -7 -27 -7 -51 0 -43 0 -43 36 -43 l35 0 -3 48 c-3
42 -6 47 -28 50 -14 2 -29 0 -33 -4z"/>
<path d="M1170 3166 c0 -49 17 -69 52 -64 25 3 35 39 24 84 -5 20 -13 24 -41
24 -35 0 -35 0 -35 -44z"/>
<path d="M8974 3146 c-3 -8 -4 -25 -2 -38 2 -18 10 -24 36 -26 33 -3 33 -3 30
35 -3 33 -7 38 -31 41 -17 2 -29 -2 -33 -12z"/>
<path d="M1170 2956 c0 -41 3 -46 27 -52 33 -9 55 18 51 61 -3 27 -7 30 -40
33 l-38 3 0 -45z"/>
<path d="M8975 2970 c-12 -19 6 -69 27 -76 28 -8 40 7 36 47 -2 28 -7 35 -30
37 -14 2 -29 -2 -33 -8z"/>
<path d="M5313 2814 c-47 -23 -400 -391 -873 -909 -80 -88 -204 -221 -276
-296 -125 -132 -260 -297 -250 -306 20 -20 255 102 367 191 31 25 133 129 225
233 93 103 203 224 245 268 41 44 138 152 214 240 76 88 210 233 298 322 159
162 160 163 154 200 -6 36 -37 73 -61 73 -6 0 -25 -8 -43 -16z"/>
<path d="M1170 2762 c0 -50 0 -50 36 -54 41 -5 47 3 42 58 -3 37 -5 39 -40 42
l-38 3 0 -49z"/>
<path d="M1177 2604 c-13 -13 -7 -81 7 -94 8 -6 25 -10 38 -8 21 3 23 8 23 53
0 48 -1 50 -30 53 -17 2 -34 0 -38 -4z"/>
<path d="M1202 2404 c-19 -13 -22 -22 -17 -43 14 -56 64 -78 88 -40 7 12 5 27
-9 54 -23 46 -32 50 -62 29z"/>
<path d="M1318 2205 c-10 -22 -8 -30 9 -53 27 -37 57 -40 79 -7 16 25 16 27
-3 53 -28 38 -69 41 -85 7z"/>
<path d="M1467 2072 c-24 -26 -21 -49 8 -68 33 -21 58 -15 70 20 8 24 6 31
-14 47 -29 24 -43 24 -64 1z"/>
<path d="M1631 1967 c-17 -21 0 -51 38 -67 34 -14 58 -8 68 16 14 37 -79 82
-106 51z"/>
<path d="M2118 1933 c-18 -5 -33 -37 -24 -52 10 -15 76 -23 92 -10 41 34 -7
78 -68 62z"/>
<path d="M1864 1916 c-11 -28 3 -43 47 -50 48 -8 62 1 57 35 -3 21 -9 24 -51
27 -35 2 -49 -1 -53 -12z"/>
<path d="M2324 1916 c-12 -30 4 -47 38 -44 28 2 33 7 33 28 0 21 -5 26 -33 28
-22 2 -34 -2 -38 -12z"/>
<path d="M2500 1910 c-13 -9 -12 -12 4 -25 29 -22 66 -19 66 4 0 28 -41 40
-70 21z"/>
<path d="M7470 1860 c0 -5 9 -10 20 -10 11 0 20 5 20 10 0 6 -9 10 -20 10 -11
0 -20 -4 -20 -10z"/>
</g>
</svg>
